<svg xmlns="http://www.w3.org/2000/svg" width="40" height="40" enable-background="new 0 0 512 512" viewBox="0 0 512 512" id="sunrise"><path fill="#FBB523" d="M168.578,376.18l-1.291-3.052c-5.022-11.872-7.568-24.484-7.568-37.487
			c0-53.09,43.192-96.281,96.282-96.281s96.281,43.191,96.281,96.281c0,13.001-2.546,25.613-7.567,37.486l-1.291,3.053H168.578z"></path><path d="M256,244.359c50.407,0,91.281,40.861,91.281,91.281c0,12.604-2.553,24.615-7.173,35.539H171.892
			c-4.621-10.924-7.173-22.936-7.173-35.539C164.718,285.221,205.593,244.359,256,244.359 M256,234.359
			c-55.847,0-101.282,45.435-101.282,101.281c0,13.676,2.679,26.943,7.963,39.436l2.583,6.104h6.627h168.217h6.628l2.582-6.104
			c5.284-12.493,7.963-25.761,7.963-39.435C357.281,279.794,311.847,234.359,256,234.359L256,234.359z"></path><path fill="#F89851" d="M347.237,335.64c0,12.6-2.55,24.62-7.17,35.54h-23c4.62-10.92,7.17-22.94,7.17-35.54
		c0-46.521-34.8-84.91-79.78-90.561c3.76-0.479,7.6-0.72,11.5-0.72C306.367,244.359,347.237,285.22,347.237,335.64z"></path><line x1="256" x2="256" y1="140.656" y2="206.605" fill="#FBB523" stroke="#000" stroke-miterlimit="10" stroke-width="10"></line><path fill="#FBB523" d="M256,216.442c-5.701,0-10-4.229-10-9.837v-65.949c0-5.607,4.299-9.836,10-9.836s10,4.229,10,9.836
						v65.949C266,212.213,261.701,216.442,256,216.442z"></path><path d="M256,135.82c2.5,0,5,1.612,5,4.836c0,21.983,0,43.967,0,65.949c0,3.225-2.5,4.837-5,4.837s-5-1.612-5-4.837
						c0-21.982,0-43.966,0-65.949C251,137.432,253.5,135.82,256,135.82 M256,125.82c-8.411,0-15,6.517-15,14.836v65.949
						c0,8.32,6.589,14.837,15,14.837s15-6.517,15-14.837v-65.949C271,132.337,264.411,125.82,256,125.82L256,125.82z"></path><line x1="393.864" x2="347.237" y1="197.766" y2="244.397" fill="#FBB523" stroke="#000" stroke-miterlimit="10" stroke-width="10"></line><path fill="#FBB523" d="M347.434,254.408c-4.05,0-7.85-2.604-9.454-6.479c-1.521-3.67-0.683-7.732,2.188-10.602l46.627-46.632
						c1.895-1.896,4.336-2.939,6.874-2.939c4.05,0,7.849,2.604,9.454,6.479c1.521,3.67,0.683,7.733-2.187,10.603l-46.628,46.632
						C352.413,253.364,349.972,254.408,347.434,254.408L347.434,254.408z"></path><path d="M393.668,192.755c3.841,0,7.256,5.021,3.731,8.546c-15.542,15.544-31.084,31.088-46.627,46.632
						c-1.039,1.039-2.207,1.475-3.339,1.475c-3.84,0-7.256-5.021-3.731-8.546c15.542-15.544,31.084-31.088,46.627-46.632
						C391.368,193.191,392.536,192.755,393.668,192.755 M393.668,182.755c-3.873,0-7.571,1.564-10.411,4.405l-46.626,46.631
						c-4.326,4.326-5.58,10.477-3.271,16.051c2.37,5.722,8.026,9.566,14.074,9.566c3.873,0,7.57-1.563,10.41-4.403l46.627-46.632
						c4.327-4.328,5.58-10.479,3.271-16.052C405.371,186.599,399.716,182.755,393.668,182.755L393.668,182.755z"></path><line x1="164.759" x2="118.125" y1="244.396" y2="197.766" fill="#FBB523" stroke="#000" stroke-miterlimit="10" stroke-width="10"></line><path fill="#FBB523" d="M164.561,254.407c-2.537,0-4.979-1.044-6.873-2.939l-46.634-46.631
						c-2.87-2.87-3.708-6.932-2.188-10.602c1.605-3.875,5.405-6.479,9.456-6.479c2.538,0,4.979,1.044,6.874,2.939l46.634,46.631
						c2.87,2.87,3.708,6.933,2.187,10.604c-1.605,3.875-5.405,6.478-9.454,6.478C164.563,254.407,164.562,254.407,164.561,254.407z"></path><path d="M118.322,192.756c1.131,0,2.3,0.436,3.339,1.475c15.544,15.544,31.089,31.087,46.634,46.631
						c3.525,3.525,0.109,8.546-3.732,8.546c-1.131,0-2.3-0.436-3.339-1.475c-15.544-15.544-31.089-31.088-46.634-46.631
						C111.064,197.777,114.48,192.756,118.322,192.756 M118.322,182.756c-6.049,0-11.705,3.844-14.075,9.566
						c-2.309,5.574-1.056,11.724,3.271,16.051l45.55,45.546l1.084,1.084c2.84,2.84,6.537,4.403,10.41,4.403
						c6.049,0,11.705-3.844,14.075-9.566c2.309-5.574,1.056-11.724-3.271-16.051l-16.582-16.581l-30.052-30.05
						C125.892,184.32,122.195,182.756,118.322,182.756L118.322,182.756z"></path><line x1="450.98" x2="385.031" y1="335.635" y2="335.635" fill="#FBB523" stroke="#000" stroke-miterlimit="10" stroke-width="10"></line><path fill="#FBB523" d="M385.031,345.635c-5.607,0-9.836-4.299-9.836-10s4.229-10,9.836-10h65.949
						c5.607,0,9.836,4.299,9.836,10s-4.229,10-9.836,10H385.031z"></path><path d="M450.98,330.635c6.448,0,6.448,10,0,10c-21.983,0-43.966,0-65.949,0c-6.448,0-6.448-10,0-10
						C407.015,330.635,428.997,330.635,450.98,330.635 M450.98,320.635h-65.949c-8.319,0-14.836,6.589-14.836,15s6.517,15,14.836,15
						h65.949c8.319,0,14.836-6.589,14.836-15S459.3,320.635,450.98,320.635L450.98,320.635z"></path><line x1="126.967" x2="61.019" y1="335.635" y2="335.635" fill="#FBB523" stroke="#000" stroke-miterlimit="10" stroke-width="10"></line><path fill="#FBB523" d="M61.019,345.635c-5.608,0-9.836-4.299-9.836-10s4.229-10,9.836-10h65.948c5.608,0,9.836,4.299,9.836,10
						s-4.229,10-9.836,10H61.019z"></path><path d="M126.967,330.635c6.449,0,6.449,10,0,10c-21.983,0-43.965,0-65.948,0c-6.449,0-6.449-10,0-10
						C83.002,330.635,104.984,330.635,126.967,330.635 M126.967,320.635H61.019c-8.319,0-14.836,6.589-14.836,15s6.517,15,14.836,15
						h65.948c8.319,0,14.836-6.589,14.836-15S135.287,320.635,126.967,320.635L126.967,320.635z"></path><g><path fill="#F89851" d="M256,346.766c-5.701,0-10-4.229-10-9.836v-17.652c-1.82,1.427-3.959,2.178-6.21,2.178
			c-4.328,0-8.387-2.831-9.87-6.885c-1.35-3.692-0.249-7.624,2.874-10.262l16.283-13.758l0.229-0.229l0.171-0.11
			c1.791-1.47,4.088-2.273,6.523-2.273c2.542,0,4.934,0.876,6.756,2.471l0.116,0.093l0.047,0.048l16.285,13.761
			c3.123,2.638,4.225,6.57,2.873,10.263c-1.482,4.053-5.54,6.884-9.867,6.884c-0.001,0-0.001,0-0.002,0
			c-2.251,0-4.389-0.752-6.209-2.178v17.651C266,342.537,261.701,346.766,256,346.766z"></path><path d="M256,292.938c1.291,0,2.581,0.43,3.528,1.291c0.002,0.002,0.005,0.004,0.007,0.006c5.48,4.632,10.962,9.264,16.443,13.895
			c3.879,3.276,0.313,8.327-3.769,8.327c-1.108,0-2.256-0.373-3.302-1.257c-2.637-2.227-5.272-4.455-7.908-6.682
			c0,9.471,0,18.941,0,28.412c0,3.225-2.5,4.836-5,4.836c-2.5,0-5-1.611-5-4.836c0-9.471,0-18.941,0-28.413
			c-2.636,2.228-5.272,4.456-7.909,6.683c-1.046,0.884-2.192,1.256-3.302,1.256c-4.081,0-7.648-5.051-3.77-8.326
			c5.482-4.631,10.963-9.263,16.444-13.895c0.003-0.003,0.006-0.005,0.009-0.007C253.42,293.367,254.71,292.938,256,292.938
			 M256.001,282.938L256.001,282.938c-3.484,0-6.797,1.131-9.441,3.203l-0.401,0.259l-0.465,0.464
			c-5.398,4.562-10.762,9.094-16.127,13.626c-4.77,4.028-6.434,10.082-4.343,15.799c2.19,5.986,8.179,10.167,14.565,10.167
			c0.406,0,0.81-0.016,1.21-0.048v10.522c0,8.319,6.589,14.836,15,14.836c8.411,0,15-6.517,15-14.836v-10.521
			c0.4,0.031,0.804,0.048,1.21,0.048c6.386,0,12.375-4.181,14.564-10.167c2.091-5.717,0.427-11.771-4.344-15.8l-16.09-13.597
			l-0.092-0.093l-0.288-0.23C263.238,284.225,259.718,282.938,256.001,282.938L256.001,282.938L256.001,282.938z"></path></g><g><polyline fill="#F89851" stroke="#000" stroke-miterlimit="10" stroke-width="10" points="478.123 371.18 326.577 371.18 185.425 371.18 33.877 371.18"></polyline><path fill="#F89851" d="M33.877,381.18c-5.608,0-9.836-4.299-9.836-10s4.229-10,9.836-10h444.246c5.607,0,9.836,4.299,9.836,10
					s-4.229,10-9.836,10H33.877z"></path><path d="M478.123,366.18c6.448,0,6.448,10,0,10c-10.8,0-21.6,0-32.399,0c-44.108,0-88.217,0-132.325,0
					c-44.757,0-89.513,0-134.269,0c-48.417,0-96.835,0-145.252,0c-6.449,0-6.449-10,0-10c10.8,0,21.6,0,32.4,0
					c44.109,0,88.218,0,132.327,0c44.756,0,89.513,0,134.269,0C381.289,366.18,429.706,366.18,478.123,366.18 M478.123,356.18
					H332.872H198.604H66.277h-32.4c-8.319,0-14.836,6.589-14.836,15s6.517,15,14.836,15h145.252h134.269h132.325h32.399
					c8.319,0,14.836-6.589,14.836-15S486.442,356.18,478.123,356.18L478.123,356.18z"></path></g></svg>