<svg xmlns="http://www.w3.org/2000/svg" width="40" height="40" data-name="Layer 1" viewBox="0 0 130 130" id="sunset"><path fill="#ffb100" d="M65,28.44A37.58,37.58,0,0,0,30.88,81.79,22.68,22.68,0,0,0,40,83.68a22.17,22.17,0,0,0,12.5-3.76,22.66,22.66,0,0,1,25,0A22.12,22.12,0,0,0,90,83.68a22.73,22.73,0,0,0,9.13-1.89A37.6,37.6,0,0,0,65,28.44Z"></path><path fill="#ef9f00" d="M28.11 73.3a34.31 34.31 0 0 0 18.07 9.55 23.41 23.41 0 0 1-6.17.83 22.76 22.76 0 0 1-9.13-1.89A37.19 37.19 0 0 1 28.11 73.3zM102.59 66a37.42 37.42 0 0 1-3.46 15.76A22.78 22.78 0 0 1 90 83.68 22.14 22.14 0 0 1 77.5 79.92a20.5 20.5 0 0 0-5-2.52A32.09 32.09 0 0 0 86.7 50.9a31.54 31.54 0 0 0-6.61-19.3A37.58 37.58 0 0 1 102.59 66z"></path><path fill="#1a1a1a" d="M90 85.18a23.79 23.79 0 0 1-13.34-4 21.14 21.14 0 0 0-23.3 0 23.85 23.85 0 0 1-13.35 4 24.36 24.36 0 0 1-9.73-2l-.51-.23-.24-.51A38.46 38.46 0 0 1 25.91 66a39.09 39.09 0 1 1 74.58 16.39l-.24.51-.52.23A24.37 24.37 0 0 1 90 85.18zM65 74.66a23.79 23.79 0 0 1 13.34 4A20.68 20.68 0 0 0 90 82.18a21.46 21.46 0 0 0 8-1.54A36.09 36.09 0 1 0 28.91 66 35.64 35.64 0 0 0 32 80.64a21.41 21.41 0 0 0 8 1.54 20.79 20.79 0 0 0 11.66-3.5A23.85 23.85 0 0 1 65 74.66zM106.94 46.5l9-1.56-7.45 5.26a2.05 2.05 0 1 1-2.36-3.36A2.15 2.15 0 0 1 106.94 46.5zM63 19.81L65 6.43l2 13.38a2 2 0 1 1-4 0zM111.22 64l13.39 2-13.39 2a2 2 0 0 1-.6-4A2 2 0 0 1 111.22 64zM18.78 68L5.39 66l13.39-2a2 2 0 1 1 .59 4A2.33 2.33 0 0 1 18.78 68zM96.27 31.94l10.88-8L99.1 34.77a2 2 0 0 1-3.25-2.41A1.86 1.86 0 0 1 96.27 31.94zM30.9 34.77l-8-10.88 10.88 8.05a2 2 0 0 1-2.41 3.25A2.38 2.38 0 0 1 30.9 34.77zM45.46 24.1l-1.55-9 5.25 7.45a2 2 0 1 1-3.7 1.53zM80.84 22.57l5.25-7.45-1.55 9a2.05 2.05 0 0 1-4-.7A2 2 0 0 1 80.84 22.57zM21.53 50.2l-7.45-5.26 9 1.56a2.05 2.05 0 1 1-.7 4A2.18 2.18 0 0 1 21.53 50.2z"></path><path fill="#1a1a1a" d="M30.88 83.29a1.52 1.52 0 0 1-.59-.12 21.69 21.69 0 0 1-3.64-2A20.79 20.79 0 0 0 15 77.66a20.7 20.7 0 0 0-11.64 3.5 1.5 1.5 0 0 1-1.7-2.47 23.72 23.72 0 0 1 13.34-4 23.85 23.85 0 0 1 13.35 4 18.55 18.55 0 0 0 3.13 1.73 1.5 1.5 0 0 1-.59 2.88zM99.12 83.29a1.5 1.5 0 0 1-.6-2.87 19.87 19.87 0 0 0 3.13-1.74 24.1 24.1 0 0 1 26.7 0 1.5 1.5 0 1 1-1.7 2.48 21 21 0 0 0-23.31 0 22.62 22.62 0 0 1-3.61 2A1.46 1.46 0 0 1 99.12 83.29zM40 98a23.68 23.68 0 0 1-13.35-4 21 21 0 0 0-23.3 0 1.5 1.5 0 1 1-1.7-2.47 24.06 24.06 0 0 1 26.7 0 21 21 0 0 0 23.3 0A24 24 0 0 1 70.11 88a1.5 1.5 0 0 1-.63 2.94 20.93 20.93 0 0 0-16.13 3A23.68 23.68 0 0 1 40 98zM90 98a23.68 23.68 0 0 1-13.35-4 1.5 1.5 0 1 1 1.7-2.47 21.05 21.05 0 0 0 23.3 0 1.5 1.5 0 1 1 1.7 2.47A23.68 23.68 0 0 1 90 98zM127.5 94.21a1.49 1.49 0 0 1-.85-.26 21 21 0 0 0-17.75-2.62 1.5 1.5 0 1 1-.85-2.88 24.07 24.07 0 0 1 20.3 3 1.51 1.51 0 0 1 .39 2.08A1.48 1.48 0 0 1 127.5 94.21zM36.15 110.45l-.25 0a23.24 23.24 0 0 1-9.25-3.69 21 21 0 0 0-23.3 0 1.5 1.5 0 1 1-1.7-2.47 24.1 24.1 0 0 1 26.7 0 20.25 20.25 0 0 0 8 3.2 1.5 1.5 0 0 1-.25 3zM86.7 110.54l-.22 0a23.29 23.29 0 0 1-9.83-3.78 21.05 21.05 0 0 0-23.3 0 22.79 22.79 0 0 1-7.84 3.41 1.5 1.5 0 1 1-.67-2.92 20 20 0 0 0 6.81-3 24.1 24.1 0 0 1 26.7 0 20.32 20.32 0 0 0 8.56 3.28 1.5 1.5 0 0 1-.21 3zM96.72 109.77a1.5 1.5 0 0 1-.43-2.93 19.8 19.8 0 0 0 5.36-2.57 24.1 24.1 0 0 1 26.7 0 1.5 1.5 0 1 1-1.7 2.47 21.05 21.05 0 0 0-23.3 0 22.54 22.54 0 0 1-6.19 3A1.61 1.61 0 0 1 96.72 109.77zM40 123.57a23.67 23.67 0 0 1-13.35-4 21 21 0 0 0-23.3 0 1.5 1.5 0 1 1-1.7-2.48 24.1 24.1 0 0 1 26.7 0 21 21 0 0 0 23.3 0 24 24 0 0 1 17.49-3.68 1.5 1.5 0 0 1-.51 3 21 21 0 0 0-15.28 3.2A23.67 23.67 0 0 1 40 123.57zM90 123.57a23.67 23.67 0 0 1-13.35-4 1.5 1.5 0 1 1 1.7-2.48 21 21 0 0 0 23.3 0 24.1 24.1 0 0 1 26.7 0 1.5 1.5 0 1 1-1.7 2.48 21 21 0 0 0-23.3 0A23.67 23.67 0 0 1 90 123.57z"></path><circle cx="54.14" cy="53.77" r="13.59" fill="#fff" opacity=".25" transform="rotate(-22.5 54.134 53.78)"></circle><path fill="#1a1a1a" d="M65,67.13a1.5,1.5,0,0,1-1.5-1.5V41.25a1.5,1.5,0,0,1,3,0V65.63A1.5,1.5,0,0,1,65,67.13Z"></path><path fill="#1a1a1a" d="M65,67.8a1.51,1.51,0,0,1-1.06-.44l-7.5-7.5a1.5,1.5,0,1,1,2.12-2.12L65,64.18l6.44-6.44a1.5,1.5,0,1,1,2.12,2.12l-7.5,7.5A1.51,1.51,0,0,1,65,67.8Z"></path></svg>