<svg xmlns="http://www.w3.org/2000/svg" width="40" height="40" viewBox="0 0 64 64" id="wind-direction"><path fill="#4D4D4D" d="M31 2h2v2h-2zM31 7h2v2h-2zM31 11h2v2h-2zM31 19h2v2h-2zM31 27h2v2h-2zM31 35h2v2h-2zM31 43h2v2h-2zM31 60h2v2h-2zM31 55h2v2h-2zM60 31h2v2h-2zM55 31h2v2h-2zM43 31h2v2h-2zM35 31h2v2h-2zM27 31h2v2h-2zM19 31h2v2h-2zM11 31h2v2h-2zM2 31h2v2H2zM7 31h2v2H7zM51.799 50.384l1.414 1.414-1.414 1.415-1.414-1.415zM46.142 44.727l1.415 1.415-1.414 1.414-1.415-1.415zM40.485 39.07l1.415 1.414-1.415 1.414-1.414-1.414zM34.828 33.413l1.414 1.414-1.414 1.415-1.414-1.415zM29.172 27.757l1.414 1.415-1.414 1.414-1.414-1.414zM23.515 22.1l1.414 1.415-1.414 1.414-1.415-1.414zM12.201 10.787l1.414 1.414-1.414 1.414-1.414-1.414z"></path><path fill="#4D4D4D" d="M18.042 41.706A16.897 16.897 0 0 1 15 32c0-9.374 7.626-17 17-17a16.87 16.87 0 0 1 9.987 3.242l-1.176 1.617A14.888 14.888 0 0 0 32 17c-8.271 0-15 6.729-15 15 0 3.082.928 6.044 2.683 8.563l-1.641 1.143zM32 49a16.918 16.918 0 0 1-9.568-2.946l1.127-1.652A14.92 14.92 0 0 0 32 47c8.271 0 15-6.729 15-15 0-3.143-.961-6.151-2.78-8.701l1.629-1.162A16.894 16.894 0 0 1 49 32c0 9.374-7.626 17-17 17z"></path><path fill="#4D4D4D" d="M15.31 44.748A20.815 20.815 0 0 1 11 32c0-11.579 9.421-21 21-21 4.59 0 8.95 1.454 12.609 4.206l-1.201 1.598A18.836 18.836 0 0 0 32 13c-10.477 0-19 8.523-19 19 0 4.209 1.349 8.197 3.899 11.533l-1.589 1.215zM32 53a20.822 20.822 0 0 1-12.622-4.215l1.203-1.598A18.836 18.836 0 0 0 32 51c10.477 0 19-8.523 19-19 0-4.132-1.303-8.06-3.768-11.358l1.602-1.197A20.811 20.811 0 0 1 53 32c0 11.579-9.421 21-21 21z"></path><path fill="#D43239" d="M53.707 10.293a1.009 1.009 0 0 0-.903-.273l-5 1a1.001 1.001 0 0 0-.511 1.687L48.586 14 10.787 51.799l1.414 1.414L50 15.414l1.293 1.293a1 1 0 0 0 1.687-.511l1-5a.999.999 0 0 0-.273-.903z"></path></svg>